<svg version="1.1" id="Layer_1" xmlns="http://www.w3.org/2000/svg" xmlns:xlink="http://www.w3.org/1999/xlink" x="0px" y="0px"
	 width="100%" viewBox="0 0 512 512" enable-background="new 0 0 512 512" xml:space="preserve">
<path fill="#000000" opacity="1.000000" stroke="none" 
	d="
M287.000000,513.000000 
	C191.356552,513.000000 96.213104,513.000000 1.034826,513.000000 
	C1.034826,342.398193 1.034826,171.796371 1.034826,1.097280 
	C171.560135,1.097280 342.120331,1.097280 512.840271,1.097280 
	C512.840271,171.666550 512.840271,342.333252 512.840271,513.000000 
	C437.796356,513.000000 362.648163,513.000000 287.000000,513.000000 
M165.229034,64.023888 
	C158.672836,64.676949 155.123962,69.200905 153.303986,74.680511 
	C151.745300,79.373436 153.357971,84.015335 157.103683,87.598984 
	C159.719666,90.101768 162.335617,92.604599 165.202209,95.723312 
	C168.787811,99.184906 172.373413,102.646500 176.238174,106.755119 
	C179.306107,109.589691 182.678024,111.446014 187.841827,110.018082 
	C194.918991,111.162842 200.804977,100.571838 199.574371,94.812141 
	C198.063263,87.739479 192.463577,84.467140 187.833038,79.334946 
	C184.234543,75.851768 180.636047,72.368591 176.758362,68.247681 
	C173.739624,65.388893 170.408127,63.354809 165.229034,64.023888 
M434.792084,326.282898 
	C433.275909,324.770691 431.890900,323.090210 430.214691,321.783203 
	C427.233704,319.458649 424.076324,317.360260 420.207947,315.012360 
	C418.514679,314.798828 416.757904,314.183289 415.138794,314.439117 
	C406.699219,315.772430 400.312347,324.490631 404.087524,334.982605 
	C395.097046,332.974426 386.106598,330.966278 377.009094,328.065002 
	C376.617218,324.376068 376.225342,320.687164 375.983398,316.380859 
	C375.927032,315.750610 375.870667,315.120392 376.454346,314.073547 
	C388.144684,305.665161 397.928040,295.431915 406.004028,283.510284 
	C420.639709,261.905304 427.813232,238.050674 427.976105,211.107193 
	C426.338501,200.391022 424.700897,189.674850 423.002533,178.166122 
	C422.652344,176.757401 422.432922,175.300232 421.931549,173.947525 
	C417.602631,162.268051 413.323395,150.556015 404.993866,140.180161 
	C400.366180,134.771576 395.738525,129.362976 390.842499,123.334297 
	C381.004761,113.255440 369.872131,104.989975 356.334625,98.854240 
	C340.284790,90.327721 322.940369,87.038399 304.083313,86.020691 
	C294.650177,87.002663 285.090790,87.320801 275.806793,89.086807 
	C243.532974,95.225960 218.176498,112.543724 198.857040,138.773300 
	C191.248291,149.103531 185.046280,160.326477 181.211624,173.325378 
	C177.047073,186.172363 175.388367,199.414078 174.120529,212.987076 
	C166.412613,214.603378 158.704697,216.219681 150.997009,217.032837 
	C154.527252,208.089264 146.201279,197.192551 137.423386,198.963562 
	C135.992386,199.252274 134.474182,199.108673 132.072311,199.024429 
	C127.045883,199.071823 122.019455,199.119217 116.088783,199.026810 
	C114.094032,199.018570 112.099167,199.021698 110.104561,199.000153 
	C100.915352,198.900940 97.305809,205.670883 97.277206,212.458374 
	C97.248444,219.282501 100.924950,226.069946 110.022102,225.992798 
	C112.346039,225.973083 114.669418,225.888245 117.916687,225.985672 
	C122.945457,226.044861 127.974236,226.104050 132.703445,226.798737 
	C126.828926,231.002884 120.183151,234.465714 115.261765,239.585968 
	C107.992142,247.149338 101.264755,255.449615 95.577888,264.257050 
	C90.035858,272.840149 86.320824,282.538239 84.214622,293.292633 
	C83.532104,301.194489 82.849586,309.096344 82.013748,317.846619 
	C82.397758,321.563934 82.781769,325.281219 82.769661,329.721680 
	C67.554123,332.162079 53.714073,337.692627 41.306370,348.158752 
	C33.255424,353.977631 27.082575,361.469055 21.294477,370.200867 
	C18.251844,377.466736 15.209213,384.732574 11.814584,392.718201 
	C10.931787,397.811462 10.048992,402.904755 9.012624,408.848358 
	C8.994236,413.937286 8.975848,419.026184 8.994700,424.992859 
	C9.718920,429.328003 10.443139,433.663177 11.016235,438.800476 
	C12.637163,443.551208 14.258090,448.301910 15.992706,453.787415 
	C20.291933,460.540741 24.591162,467.294067 29.148401,474.671906 
	C30.090015,475.610504 31.072515,476.511841 31.967245,477.493164 
	C50.402012,497.712585 73.861626,505.956116 100.615318,505.975525 
	C190.735718,506.040802 280.856201,506.015411 370.976624,505.956512 
	C375.563507,505.953522 380.228027,505.734314 384.723450,504.899841 
	C406.366730,500.882202 424.814850,491.081268 439.741974,473.752106 
	C440.224792,472.932007 440.714447,472.115845 441.189331,471.291168 
	C444.499786,465.542450 447.807190,459.791901 451.767395,453.721039 
	C453.292786,449.445282 454.818176,445.169525 456.929993,440.236877 
	C457.564789,433.824341 458.199585,427.411774 458.994751,420.207977 
	C458.941132,416.137970 458.887512,412.067963 458.983002,407.157806 
	C457.694946,401.758972 456.406860,396.360168 455.008514,390.172028 
	C452.044922,383.768219 449.081329,377.364441 446.003998,370.245819 
	C443.947937,367.163147 441.891876,364.080475 440.179352,360.356354 
	C449.719116,357.346771 453.318420,345.664276 446.750092,338.348999 
	C443.111694,334.296906 438.968750,330.697876 434.792084,326.282898 
M469.099182,199.026321 
	C467.437744,199.018219 465.776184,198.995102 464.114868,199.004700 
	C457.700043,199.041763 453.654175,202.557190 451.388306,210.047638 
	C450.106598,214.284760 452.974335,220.277084 456.817047,223.538940 
	C460.950226,227.047318 465.492676,225.772552 470.917267,225.983032 
	C475.942841,225.933243 480.968414,225.883453 486.898163,225.984894 
	C489.056610,225.990692 491.215485,226.028000 493.373383,225.996002 
	C498.581787,225.918777 503.514709,222.426559 504.965912,217.826462 
	C506.898010,211.702103 504.686493,205.340149 500.565521,201.755966 
	C496.010101,197.793900 490.970184,199.267242 485.070099,199.027344 
	C480.044525,199.074280 475.018921,199.121231 469.099182,199.026321 
M418.339783,76.157860 
	C414.956604,79.541473 411.666718,83.025131 408.169556,86.286499 
	C402.103394,91.943642 401.954803,98.435135 406.125336,105.375717 
	C408.578918,109.458946 415.810059,111.695984 420.736725,109.981163 
	C426.727325,108.997719 429.248383,103.694588 433.717987,99.799057 
	C437.917023,95.590698 442.186707,91.449982 446.295868,87.155602 
	C450.704315,82.548409 451.238770,76.060272 447.861145,70.627892 
	C444.483002,65.194725 438.097321,62.887707 431.245636,65.000557 
	C427.150055,68.629585 423.054474,72.258614 418.339783,76.157860 
M307.771515,61.008190 
	C312.961182,59.197472 314.943481,55.213184 314.976868,50.066376 
	C315.040405,40.276203 315.022644,30.485222 314.984406,20.694790 
	C314.964142,15.502165 312.129700,11.719631 306.665039,9.223522 
	C303.774292,9.204879 300.883545,9.186236 297.264099,9.035957 
	C290.234985,11.146575 287.677063,15.999787 287.921997,23.139151 
	C288.224609,31.959856 287.980408,40.798874 287.998749,49.629921 
	C288.013519,56.739609 290.635468,59.918354 298.696289,62.182140 
	C301.478699,61.825855 304.261108,61.469570 307.771515,61.008190 
z"/>
<path fill="#CCE8FF" opacity="1.000000" stroke="none" 
	d="
M84.953201,292.889099 
	C86.320824,282.538239 90.035858,272.840149 95.577888,264.257050 
	C101.264755,255.449615 107.992142,247.149338 115.261765,239.585968 
	C120.183151,234.465714 126.828926,231.002884 132.901184,226.454346 
	C133.098923,226.109955 133.085022,226.001160 133.454193,225.982742 
	C139.547836,223.254883 145.272308,220.545425 150.996780,217.835983 
	C158.704697,216.219681 166.412613,214.603378 175.013397,213.014404 
	C183.604675,213.305313 191.303085,213.568863 199.408691,213.908310 
	C215.053864,216.280624 229.025024,221.867828 242.116486,230.479004 
	C247.738754,235.213425 253.183929,239.668991 258.791595,244.430237 
	C264.601196,252.176132 270.248322,259.616333 276.082184,267.302612 
	C286.945312,261.518738 298.752014,259.576996 311.423584,259.834900 
	C323.424500,260.520844 333.963501,264.455231 344.233643,270.187256 
	C345.779449,271.407227 347.188080,272.277832 348.445374,273.329407 
	C355.494904,279.225464 362.815216,284.899292 365.789001,293.934265 
	C273.406494,293.972534 181.509277,293.991638 89.612083,293.953613 
	C88.058975,293.952972 86.506157,293.259369 84.953201,292.889099 
z"/>
<path fill="#99CCFF" opacity="1.000000" stroke="none" 
	d="
M439.113373,474.043396 
	C424.814850,491.081268 406.366730,500.882202 384.723450,504.899841 
	C380.228027,505.734314 375.563507,505.953522 370.976624,505.956512 
	C280.856201,506.015411 190.735718,506.040802 100.615318,505.975525 
	C73.861626,505.956116 50.402012,497.712585 31.967245,477.493164 
	C31.072515,476.511841 30.090015,475.610504 29.368519,474.212585 
	C32.368950,473.835541 35.149254,473.989410 37.929573,473.989655 
	C168.729828,474.001495 299.530060,473.999725 430.330322,474.001831 
	C433.257996,474.001862 436.185699,474.028931 439.113373,474.043396 
z"/>
<path fill="#B7DDFF" opacity="1.000000" stroke="none" 
	d="
M21.953457,369.889984 
	C27.082575,361.469055 33.255424,353.977631 41.874443,348.331116 
	C44.990520,349.002289 47.538265,349.936035 50.086567,349.937561 
	C170.679092,350.009186 291.271667,350.012421 411.864197,349.954468 
	C416.652191,349.952179 421.439819,349.280670 426.531982,349.030670 
	C428.867737,350.814758 430.899170,352.489166 433.071777,354.460876 
	C435.420563,356.838104 437.628204,358.917938 439.835815,360.997803 
	C441.891876,364.080475 443.947937,367.163147 445.631226,370.626404 
	C442.966797,371.337891 440.675171,371.957672 438.383392,371.958435 
	C302.061310,372.004578 165.739227,372.010834 29.417234,371.911774 
	C26.928820,371.909943 24.441362,370.593201 21.953457,369.889984 
z"/>
<path fill="#9DCEFF" opacity="1.000000" stroke="none" 
	d="
M439.427673,473.897766 
	C436.185699,474.028931 433.257996,474.001862 430.330322,474.001831 
	C299.530060,473.999725 168.729828,474.001495 37.929573,473.989655 
	C35.149254,473.989410 32.368950,473.835541 29.239513,473.900330 
	C24.591162,467.294067 20.291933,460.540741 16.411634,453.405090 
	C159.652954,453.015198 302.475342,453.003510 445.297729,453.043304 
	C447.237122,453.043854 449.176300,453.694672 451.115601,454.041962 
	C447.807190,459.791901 444.499786,465.542450 441.189331,471.291168 
	C440.714447,472.115845 440.224792,472.932007 439.427673,473.897766 
z"/>
<path fill="#B2DAFF" opacity="1.000000" stroke="none" 
	d="
M21.623966,370.045410 
	C24.441362,370.593201 26.928820,371.909943 29.417234,371.911774 
	C165.739227,372.010834 302.061310,372.004578 438.383392,371.958435 
	C440.675171,371.957672 442.966797,371.337891 445.688110,370.983795 
	C449.081329,377.364441 452.044922,383.768219 454.587524,390.577209 
	C309.618652,390.988281 165.070801,390.988556 20.522974,391.041565 
	C17.737391,391.042603 14.952038,391.665619 12.166579,391.998413 
	C15.209213,384.732574 18.251844,377.466736 21.623966,370.045410 
z"/>
<path fill="#FFC333" opacity="1.000000" stroke="none" 
	d="
M199.001511,213.832428 
	C191.303085,213.568863 183.604675,213.305313 175.445618,212.947647 
	C175.388367,199.414078 177.047073,186.172363 181.902512,173.113129 
	C192.707260,165.945999 202.839691,159.017899 212.931488,152.031113 
	C242.299423,131.699020 271.666809,111.365952 300.967682,90.937500 
	C302.618256,89.786728 303.668945,87.775536 304.998840,86.164803 
	C322.940369,87.038399 340.284790,90.327721 356.614563,99.343132 
	C355.548920,101.247681 354.395569,102.936790 352.828949,104.038002 
	C329.332947,120.554024 305.792999,137.007599 282.242096,153.445374 
	C255.420013,172.166290 228.561371,190.834900 201.789932,209.627853 
	C200.508224,210.527588 199.915237,212.408478 199.001511,213.832428 
z"/>
<path fill="#A6D3FF" opacity="1.000000" stroke="none" 
	d="
M11.167359,437.998322 
	C10.443139,433.663177 9.718920,429.328003 9.061068,424.174988 
	C11.827493,422.571411 14.527034,421.100189 17.227680,421.098145 
	C164.429840,420.987183 311.632111,420.999481 458.834351,420.999237 
	C458.199585,427.411774 457.564789,433.824341 456.457428,440.146484 
	C453.417206,439.370728 450.849915,438.087280 448.281799,438.085602 
	C302.577026,437.988922 156.872192,437.998901 11.167359,437.998322 
z"/>
<path fill="#BDE0FF" opacity="1.000000" stroke="none" 
	d="
M426.227631,348.920959 
	C421.439819,349.280670 416.652191,349.952179 411.864197,349.954468 
	C291.271667,350.012421 170.679092,350.009186 50.086567,349.937561 
	C47.538265,349.936035 44.990520,349.002289 42.197067,348.197052 
	C53.714073,337.692627 67.554123,332.162079 83.425827,329.360657 
	C181.760040,328.985809 279.438080,328.971954 377.116119,328.958099 
	C386.106598,330.966278 395.097046,332.974426 404.667236,335.273621 
	C410.166901,338.287354 415.086823,341.010101 420.250519,343.970886 
	C422.405396,345.779572 424.316498,347.350281 426.227631,348.920959 
z"/>
<path fill="#FFBA33" opacity="1.000000" stroke="none" 
	d="
M199.408691,213.908310 
	C199.915237,212.408478 200.508224,210.527588 201.789932,209.627853 
	C228.561371,190.834900 255.420013,172.166290 282.242096,153.445374 
	C305.792999,137.007599 329.332947,120.554024 352.828949,104.038002 
	C354.395569,102.936790 355.548920,101.247681 356.945465,99.498779 
	C369.872131,104.989975 381.004761,113.255440 390.667175,123.798538 
	C369.573914,138.888763 348.683350,153.554047 327.730988,168.130539 
	C302.692657,185.549637 277.548737,202.817627 252.587921,220.346695 
	C248.666016,223.100891 245.470673,226.889725 241.939407,230.200180 
	C229.025024,221.867828 215.053864,216.280624 199.408691,213.908310 
z"/>
<path fill="#ADD7FF" opacity="1.000000" stroke="none" 
	d="
M11.990581,392.358307 
	C14.952038,391.665619 17.737391,391.042603 20.522974,391.041565 
	C165.070801,390.988556 309.618652,390.988281 454.642639,390.971863 
	C456.406860,396.360168 457.694946,401.758972 458.490784,407.575531 
	C453.210632,407.662170 448.422882,407.043671 443.634827,407.041840 
	C307.762604,406.989868 171.890335,406.981171 36.018127,407.042847 
	C27.067343,407.046906 18.116837,407.665375 9.166199,407.998047 
	C10.048992,402.904755 10.931787,397.811462 11.990581,392.358307 
z"/>
<path fill="#FFB033" opacity="1.000000" stroke="none" 
	d="
M310.998566,259.746155 
	C298.752014,259.576996 286.945312,261.518738 276.082184,267.302612 
	C270.248322,259.616333 264.601196,252.176132 259.166138,244.368622 
	C270.820648,236.053925 282.263733,228.107468 293.705353,220.158951 
	C329.446167,195.329727 365.198578,170.517151 400.888672,145.615204 
	C402.560089,144.449005 403.673889,142.483627 405.047394,140.890442 
	C413.323395,150.556015 417.602631,162.268051 421.931549,173.947525 
	C422.432922,175.300232 422.652344,176.757401 422.728912,178.721497 
	C410.074371,187.899033 397.701752,196.533066 385.310822,205.140793 
	C361.755951,221.503891 338.161407,237.810394 314.690948,254.293549 
	C313.011841,255.472748 312.208893,257.899475 310.998566,259.746155 
z"/>
<path fill="#C5E4FF" opacity="1.000000" stroke="none" 
	d="
M84.583908,293.090881 
	C86.506157,293.259369 88.058975,293.952972 89.612083,293.953613 
	C181.509277,293.991638 273.406494,293.972534 366.093140,294.092194 
	C369.859802,300.980408 372.837036,307.735291 375.814270,314.490143 
	C375.870667,315.120392 375.927032,315.750610 375.450348,316.690125 
	C277.333893,316.998993 179.750488,316.998596 82.167076,316.998199 
	C82.849586,309.096344 83.532104,301.194489 84.583908,293.090881 
z"/>
<path fill="#A3D2FF" opacity="1.000000" stroke="none" 
	d="
M11.091797,438.399414 
	C156.872192,437.998901 302.577026,437.988922 448.281799,438.085602 
	C450.849915,438.087280 453.417206,439.370728 456.164246,440.474915 
	C454.818176,445.169525 453.292786,449.445282 451.441498,453.881500 
	C449.176300,453.694672 447.237122,453.043854 445.297729,453.043304 
	C302.475342,453.003510 159.652954,453.015198 16.354790,453.037720 
	C14.258090,448.301910 12.637163,443.551208 11.091797,438.399414 
z"/>
<path fill="#A9D5FF" opacity="1.000000" stroke="none" 
	d="
M9.089413,408.423218 
	C18.116837,407.665375 27.067343,407.046906 36.018127,407.042847 
	C171.890335,406.981171 307.762604,406.989868 443.634827,407.041840 
	C448.422882,407.043671 453.210632,407.662170 458.416199,407.995605 
	C458.887512,412.067963 458.941132,416.137970 458.914551,420.603607 
	C311.632111,420.999481 164.429840,420.987183 17.227680,421.098145 
	C14.527034,421.100189 11.827493,422.571411 9.042448,423.736084 
	C8.975848,419.026184 8.994236,413.937286 9.089413,408.423218 
z"/>
<path fill="#FFB533" opacity="1.000000" stroke="none" 
	d="
M405.020630,140.535309 
	C403.673889,142.483627 402.560089,144.449005 400.888672,145.615204 
	C365.198578,170.517151 329.446167,195.329727 293.705353,220.158951 
	C282.263733,228.107468 270.820648,236.053925 259.003662,244.062927 
	C253.183929,239.668991 247.738754,235.213425 242.116486,230.479004 
	C245.470673,226.889725 248.666016,223.100891 252.587921,220.346695 
	C277.548737,202.817627 302.692657,185.549637 327.730988,168.130539 
	C348.683350,153.554047 369.573914,138.888763 390.801361,124.108589 
	C395.738525,129.362976 400.366180,134.771576 405.020630,140.535309 
z"/>
<path fill="#FFA233" opacity="1.000000" stroke="none" 
	d="
M376.134308,314.281860 
	C372.837036,307.735291 369.859802,300.980408 366.578430,294.067596 
	C362.815216,284.899292 355.494904,279.225464 348.445374,273.329407 
	C347.188080,272.277832 345.779449,271.407227 344.275085,269.846558 
	C348.057281,266.043701 351.837738,262.609772 355.981079,259.691040 
	C377.021179,244.869537 398.116699,230.125381 419.308655,215.522324 
	C421.784149,213.816498 424.974365,213.147842 427.833221,211.998352 
	C427.813232,238.050674 420.639709,261.905304 406.004028,283.510284 
	C397.928040,295.431915 388.144684,305.665161 376.134308,314.281860 
z"/>
<path fill="#C1E2FF" opacity="1.000000" stroke="none" 
	d="
M82.090408,317.422424 
	C179.750488,316.998596 277.333893,316.998993 375.375366,316.998810 
	C376.225342,320.687164 376.617218,324.376068 377.062622,328.511536 
	C279.438080,328.971954 181.760040,328.985809 83.623886,328.999084 
	C82.781769,325.281219 82.397758,321.563934 82.090408,317.422424 
z"/>
<path fill="#FFA833" opacity="1.000000" stroke="none" 
	d="
M427.904663,211.552765 
	C424.974365,213.147842 421.784149,213.816498 419.308655,215.522324 
	C398.116699,230.125381 377.021179,244.869537 355.981079,259.691040 
	C351.837738,262.609772 348.057281,266.043701 344.068054,269.580750 
	C333.963501,264.455231 323.424500,260.520844 311.423584,259.834900 
	C312.208893,257.899475 313.011841,255.472748 314.690948,254.293549 
	C338.161407,237.810394 361.755951,221.503891 385.310822,205.140793 
	C397.701752,196.533066 410.074371,187.899033 422.759277,179.117767 
	C424.700897,189.674850 426.338501,200.391022 427.904663,211.552765 
z"/>
<path fill="#FFC933" opacity="1.000000" stroke="none" 
	d="
M304.541077,86.092743 
	C303.668945,87.775536 302.618256,89.786728 300.967682,90.937500 
	C271.666809,111.365952 242.299423,131.699020 212.931488,152.031113 
	C202.839691,159.017899 192.707260,165.945999 182.237289,172.929657 
	C185.046280,160.326477 191.248291,149.103531 198.857040,138.773300 
	C218.176498,112.543724 243.532974,95.225960 275.806793,89.086807 
	C285.090790,87.320801 294.650177,87.002663 304.541077,86.092743 
z"/>
<path fill="#FFB033" opacity="1.000000" stroke="none" 
	d="
M297.992798,9.167593 
	C300.883545,9.186236 303.774292,9.204879 306.842102,10.030874 
	C307.027283,27.596579 307.035400,44.354931 307.043518,61.113285 
	C304.261108,61.469570 301.478699,61.825855 298.346436,61.549408 
	C297.995300,43.666981 297.994049,26.417288 297.992798,9.167593 
z"/>
<path fill="#FFC333" opacity="1.000000" stroke="none" 
	d="
M297.628448,9.101775 
	C297.994049,26.417288 297.995300,43.666981 297.994629,61.374527 
	C290.635468,59.918354 288.013519,56.739609 287.998749,49.629921 
	C287.980408,40.798874 288.224609,31.959856 287.921997,23.139151 
	C287.677063,15.999787 290.234985,11.146575 297.628448,9.101775 
z"/>
<path fill="#FFA833" opacity="1.000000" stroke="none" 
	d="
M431.959534,64.883003 
	C438.097321,62.887707 444.483002,65.194725 447.861145,70.627892 
	C451.238770,76.060272 450.704315,82.548409 446.295868,87.155602 
	C442.186707,91.449982 437.917023,95.590698 433.114502,99.622467 
	C432.327148,87.924911 432.143341,76.403961 431.959534,64.883003 
z"/>
<path fill="#FFC333" opacity="1.000000" stroke="none" 
	d="
M116.993057,225.833344 
	C114.669418,225.888245 112.346039,225.973083 110.022102,225.992798 
	C100.924950,226.069946 97.248444,219.282501 97.277206,212.458374 
	C97.305809,205.670883 100.915352,198.900940 110.104561,199.000153 
	C112.099167,199.021698 114.094032,199.018570 116.542946,199.554626 
	C116.995758,208.666061 116.994408,217.249710 116.993057,225.833344 
z"/>
<path fill="#FFA233" opacity="1.000000" stroke="none" 
	d="
M485.994080,199.166336 
	C490.970184,199.267242 496.010101,197.793900 500.565521,201.755966 
	C504.686493,205.340149 506.898010,211.702103 504.965912,217.826462 
	C503.514709,222.426559 498.581787,225.918777 493.373383,225.996002 
	C491.215485,226.028000 489.056610,225.990692 486.447906,225.451355 
	C485.996460,216.333984 485.995270,207.750168 485.994080,199.166336 
z"/>
<path fill="#FFB533" opacity="1.000000" stroke="none" 
	d="
M431.602600,64.941780 
	C432.143341,76.403961 432.327148,87.924911 432.806213,99.747864 
	C429.248383,103.694588 426.727325,108.997719 420.366455,109.448456 
	C419.650421,97.906387 419.304626,86.897011 418.958862,75.887650 
	C423.054474,72.258614 427.150055,68.629585 431.602600,64.941780 
z"/>
<path fill="#FFC333" opacity="1.000000" stroke="none" 
	d="
M469.993347,225.831848 
	C465.492676,225.772552 460.950226,227.047318 456.817047,223.538940 
	C452.974335,220.277084 450.106598,214.284760 451.388306,210.047638 
	C453.654175,202.557190 457.700043,199.041763 464.114868,199.004700 
	C465.776184,198.995102 467.437744,199.018219 469.547913,199.555054 
	C469.995544,208.666489 469.994446,217.249161 469.993347,225.831848 
z"/>
<path fill="#FFB533" opacity="1.000000" stroke="none" 
	d="
M470.455322,225.907440 
	C469.994446,217.249161 469.995544,208.666489 469.994995,199.625977 
	C475.018921,199.121231 480.044525,199.074280 485.532104,199.096832 
	C485.995270,207.750168 485.996460,216.333984 485.995819,225.375732 
	C480.968414,225.883453 475.942841,225.933243 470.455322,225.907440 
z"/>
<path fill="#FFB033" opacity="1.000000" stroke="none" 
	d="
M117.454872,225.909515 
	C116.994408,217.249710 116.995758,208.666061 116.995071,199.624512 
	C122.019455,199.119217 127.045883,199.071823 132.535751,199.552643 
	C133.027802,208.720963 133.056412,217.361069 133.085022,226.001160 
	C133.085022,226.001160 133.098923,226.109955 133.050964,226.136597 
	C127.974236,226.104050 122.945457,226.044861 117.454872,225.909515 
z"/>
<path fill="#FFB033" opacity="1.000000" stroke="none" 
	d="
M426.531982,349.030640 
	C424.316498,347.350281 422.405396,345.779572 420.249023,343.521790 
	C420.333405,333.612183 420.663055,324.389740 420.992706,315.167267 
	C424.076324,317.360260 427.233704,319.458649 430.214691,321.783203 
	C431.890900,323.090210 433.275909,324.770691 434.751465,326.978149 
	C434.474274,331.769989 434.269897,335.868774 433.992767,339.962616 
	C433.672180,344.698547 433.287476,349.430084 432.930603,354.163544 
	C430.899170,352.489166 428.867737,350.814758 426.531982,349.030640 
z"/>
<path fill="#FFC333" opacity="1.000000" stroke="none" 
	d="
M418.649323,76.022751 
	C419.304626,86.897011 419.650421,97.906387 419.994598,109.373566 
	C415.810059,111.695984 408.578918,109.458946 406.125336,105.375717 
	C401.954803,98.435135 402.103394,91.943642 408.169556,86.286499 
	C411.666718,83.025131 414.956604,79.541473 418.649323,76.022751 
z"/>
<path fill="#FFA233" opacity="1.000000" stroke="none" 
	d="
M133.454193,225.982742 
	C133.056412,217.361069 133.027802,208.720963 132.997742,199.622864 
	C134.474182,199.108673 135.992386,199.252274 137.423386,198.963562 
	C146.201279,197.192551 154.527252,208.089264 150.996887,217.434418 
	C145.272308,220.545425 139.547836,223.254883 133.454193,225.982742 
z"/>
<path fill="#FFB033" opacity="1.000000" stroke="none" 
	d="
M177.037552,68.885414 
	C180.636047,72.368591 184.234543,75.851768 187.672119,79.945045 
	C187.354568,90.407486 187.197922,100.259819 187.041275,110.112160 
	C182.678024,111.446014 179.306107,109.589691 176.109436,105.956146 
	C176.332977,93.066589 176.685257,80.975998 177.037552,68.885414 
z"/>
<path fill="#FFA233" opacity="1.000000" stroke="none" 
	d="
M433.071777,354.460876 
	C433.287476,349.430084 433.672180,344.698547 433.992767,339.962616 
	C434.269897,335.868774 434.474274,331.769989 434.882019,327.283997 
	C438.968750,330.697876 443.111694,334.296906 446.750092,338.348999 
	C453.318420,345.664276 449.719116,357.346771 440.007568,360.677063 
	C437.628204,358.917938 435.420563,356.838104 433.071777,354.460876 
z"/>
<path fill="#FFBA33" opacity="1.000000" stroke="none" 
	d="
M176.897949,68.566544 
	C176.685257,80.975998 176.332977,93.066589 175.969849,105.632629 
	C172.373413,102.646500 168.787811,99.184906 165.246979,95.025429 
	C165.526947,84.273956 165.762131,74.220367 165.997314,64.166779 
	C170.408127,63.354809 173.739624,65.388893 176.897949,68.566544 
z"/>
<path fill="#FFC333" opacity="1.000000" stroke="none" 
	d="
M420.600342,315.089813 
	C420.663055,324.389740 420.333405,333.612183 420.005280,343.283752 
	C415.086823,341.010101 410.166901,338.287354 405.050232,335.269470 
	C400.312347,324.490631 406.699219,315.772430 415.138794,314.439117 
	C416.757904,314.183289 418.514679,314.798828 420.600342,315.089813 
z"/>
<path fill="#FFA233" opacity="1.000000" stroke="none" 
	d="
M307.407532,61.060738 
	C307.035400,44.354931 307.027283,27.596579 307.031311,10.362344 
	C312.129700,11.719631 314.964142,15.502165 314.984406,20.694790 
	C315.022644,30.485222 315.040405,40.276203 314.976868,50.066376 
	C314.943481,55.213184 312.961182,59.197472 307.407532,61.060738 
z"/>
<path fill="#FFC333" opacity="1.000000" stroke="none" 
	d="
M165.613174,64.095337 
	C165.762131,74.220367 165.526947,84.273956 165.121674,94.717484 
	C162.335617,92.604599 159.719666,90.101768 157.103683,87.598984 
	C153.357971,84.015335 151.745300,79.373436 153.303986,74.680511 
	C155.123962,69.200905 158.672836,64.676949 165.613174,64.095337 
z"/>
<path fill="#FFA233" opacity="1.000000" stroke="none" 
	d="
M187.441559,110.065125 
	C187.197922,100.259819 187.354568,90.407486 187.807098,80.253906 
	C192.463577,84.467140 198.063263,87.739479 199.574371,94.812141 
	C200.804977,100.571838 194.918991,111.162842 187.441559,110.065125 
z"/>
</svg>